<svg version="1.1" id="Layer_1" xmlns="http://www.w3.org/2000/svg" x="0px" y="0px"
	 width="100%" viewBox="0 0 400 400" enable-background="new 0 0 400 400" xml:space="preserve">
<path fill="#FFFFFF" opacity="1.000000" stroke="none" 
	d="
M401.000000,111.000000 
	C401.000000,208.000000 401.000000,304.500000 401.000000,401.000000 
	C267.666656,401.000000 134.333328,401.000000 1.000000,401.000000 
	C1.000000,267.666656 1.000000,134.333328 1.000000,1.000000 
	C134.333328,1.000000 267.666656,1.000000 401.000000,1.000000 
	C401.000000,37.500000 401.000000,74.000000 401.000000,111.000000 
M371.712402,30.162813 
	C370.225739,30.064388 368.739105,29.879980 367.252441,29.879795 
	C259.144318,29.866337 151.036194,29.866644 42.928078,29.876377 
	C41.434288,29.876511 39.940510,30.010225 37.701187,30.261959 
	C37.495468,31.868608 37.116680,33.474667 37.111191,35.081997 
	C37.063950,48.909573 37.096134,62.737385 37.081860,76.565109 
	C37.041779,115.380157 36.990845,154.195190 36.424339,193.478165 
	C36.603611,194.984238 36.782879,196.490326 37.067371,198.929123 
	C37.045128,242.942108 37.022884,286.955078 36.909904,331.804138 
	C36.933949,333.201630 36.957993,334.599091 37.065678,336.931152 
	C37.065678,346.865051 37.065678,356.798950 37.065678,367.200165 
	C75.511032,367.200165 113.286842,367.200165 151.498383,367.676239 
	C152.660583,367.470428 153.822800,367.264618 155.922806,367.115753 
	C166.959717,367.130157 177.996643,367.144592 189.416687,367.626892 
	C190.281921,367.417572 191.147171,367.208252 192.943451,367.102020 
	C251.385422,367.116150 309.827393,367.131744 368.269379,367.131653 
	C369.256592,367.131653 370.243805,366.941162 371.912354,366.371704 
	C371.986481,364.879669 372.125336,363.387634 372.125458,361.895599 
	C372.135681,252.930923 372.135406,143.966232 372.128143,35.001549 
	C372.128052,33.672455 372.026215,32.343369 371.712402,30.162813 
z"/>
<path fill="#ED1B2A" opacity="1.000000" stroke="none" 
	d="
M189.033569,367.159027 
	C177.996643,367.144592 166.959717,367.130157 155.403793,366.695862 
	C153.546310,360.964294 152.494492,355.559326 150.803894,350.362152 
	C148.098160,342.044403 144.618484,334.755798 133.752411,334.543976 
	C101.834923,333.921753 69.926247,332.847076 37.863136,331.767975 
	C37.506287,331.344269 37.269115,331.138153 37.000645,330.968079 
	C37.022884,286.955078 37.045128,242.942108 37.343513,198.209595 
	C42.222462,196.833298 46.837135,196.249542 51.425571,195.504257 
	C60.592361,194.015350 69.798309,192.698196 78.889061,190.828598 
	C89.348251,188.677567 99.664566,185.998367 106.888626,177.048309 
	C108.538567,175.004166 110.393578,172.624268 112.681473,171.689758 
	C119.709045,168.819336 122.986107,163.278412 125.261162,156.581543 
	C125.915016,154.656891 127.077507,152.383820 128.693817,151.405121 
	C133.529480,148.477081 136.500336,144.629379 137.644424,139.033829 
	C138.042404,137.087250 139.864319,135.431808 141.263214,133.904938 
	C151.920120,144.973129 162.226410,155.902390 172.814148,166.551834 
	C183.288696,177.087418 194.100723,187.286743 204.651321,197.747910 
	C208.174927,201.241638 211.187805,205.250519 214.712143,208.743423 
	C225.880096,219.811737 237.169785,230.757385 248.432159,241.730209 
	C253.502823,246.670486 258.620270,251.562759 263.801941,256.676819 
	C264.022095,257.296814 264.156738,257.716827 264.218628,258.644958 
	C264.081696,261.146576 264.044037,263.141327 263.949127,265.133331 
	C263.161163,281.674652 256.709229,296.416382 246.829834,309.014008 
	C235.255798,323.772552 219.694321,334.348602 202.633865,342.080994 
	C194.759460,345.649933 189.235916,349.498596 190.666260,359.081116 
	C190.901260,360.655518 190.294891,362.355530 189.913376,364.289032 
	C189.510788,365.440063 189.272171,366.299561 189.033569,367.159027 
z"/>
<path fill="#ED1C2B" opacity="1.000000" stroke="none" 
	d="
M36.944191,193.010223 
	C36.990845,154.195190 37.041779,115.380157 37.081860,76.565109 
	C37.096134,62.737385 37.063950,48.909573 37.111191,35.081997 
	C37.116680,33.474667 37.495468,31.868608 38.190445,30.473526 
	C39.340511,31.170057 40.001320,31.655018 40.790855,32.459862 
	C50.255680,42.212070 59.650513,51.587181 68.910904,61.093262 
	C77.692329,70.107666 86.190445,79.401245 95.072006,88.314095 
	C105.832932,99.112938 116.900078,109.606010 127.759216,120.308006 
	C130.921799,123.424828 133.826233,126.803596 136.879852,130.429535 
	C135.994690,133.076004 134.643234,135.283279 134.252182,137.649261 
	C133.407532,142.759583 130.818115,146.328995 126.683296,149.383835 
	C124.497841,150.998459 123.311363,153.952774 121.638893,156.277084 
	C118.881088,160.109695 116.426003,164.232132 113.222519,167.650681 
	C110.332466,170.734741 106.645439,173.085236 103.244644,175.673523 
	C100.112549,178.057297 97.186028,180.997345 93.663597,182.533722 
	C76.176285,190.161285 57.233364,191.022675 38.693207,193.707016 
	C38.155109,193.784927 37.529175,193.256134 36.944191,193.010223 
z"/>
<path fill="#ED1C2B" opacity="1.000000" stroke="none" 
	d="
M371.231018,366.839539 
	C370.243805,366.941162 369.256592,367.131653 368.269379,367.131653 
	C309.827393,367.131744 251.385422,367.116150 192.503021,366.679016 
	C192.062851,365.517700 192.063095,364.779327 192.192352,363.664124 
	C192.741211,360.997040 193.527145,358.703674 193.507523,356.417236 
	C193.461441,351.046021 196.815033,349.104675 200.984070,346.645111 
	C213.094131,339.500702 225.489685,332.511108 236.414886,323.764130 
	C253.032135,310.460022 263.243286,292.711487 266.610718,271.407349 
	C267.092102,268.361786 267.250671,265.265198 267.584930,261.930328 
	C272.180542,266.231628 276.608856,270.085083 280.703491,274.265350 
	C291.371002,285.156006 301.763306,296.318054 312.508484,307.130310 
	C323.020508,317.707977 333.873260,327.946167 344.500275,338.410767 
	C353.006500,346.786987 361.398468,355.279266 369.920410,363.809326 
	C369.999634,363.898621 370.477081,363.974701 370.516296,364.268982 
	C370.780701,365.322021 371.005859,366.080780 371.231018,366.839539 
z"/>
<path fill="#EC1C2B" opacity="1.000000" stroke="none" 
	d="
M151.062653,367.200165 
	C113.286842,367.200165 75.511032,367.200165 37.065678,367.200165 
	C37.065678,356.798950 37.065678,346.865051 37.206459,336.309753 
	C37.567360,335.458588 37.785706,335.227112 38.466225,335.065125 
	C61.408680,335.422638 83.894440,335.457947 106.362495,336.106476 
	C116.812874,336.408112 127.243019,337.776398 137.647568,338.965393 
	C139.548706,339.182617 142.097504,340.412842 142.955750,341.951569 
	C147.323425,349.782532 151.730225,357.712372 151.062653,367.200165 
z"/>
<path fill="#262223" opacity="1.000000" stroke="none" 
	d="
M371.571686,366.605621 
	C371.005859,366.080780 370.780701,365.322021 370.476929,364.184631 
	C370.398346,363.805969 370.239319,363.717316 370.258240,363.203979 
	C370.287811,253.613174 370.299377,144.535690 370.296844,35.458221 
	C370.296814,34.304726 370.111328,33.151237 370.273407,31.902079 
	C371.013550,31.542366 371.492706,31.278322 371.971863,31.014278 
	C372.026215,32.343369 372.128052,33.672455 372.128143,35.001549 
	C372.135406,143.966232 372.135681,252.930923 372.125458,361.895599 
	C372.125336,363.387634 371.986481,364.879669 371.571686,366.605621 
z"/>
<path fill="#585556" opacity="1.000000" stroke="none" 
	d="
M371.842133,30.588545 
	C371.492706,31.278322 371.013550,31.542366 369.803955,31.908058 
	C261.767548,32.010654 154.461578,32.010860 47.155609,32.017868 
	C44.991112,32.018009 42.826622,32.097504 40.662128,32.139980 
	C40.001320,31.655018 39.340511,31.170057 38.563210,30.383345 
	C39.940510,30.010225 41.434288,29.876511 42.928078,29.876377 
	C151.036194,29.866644 259.144318,29.866337 367.252441,29.879795 
	C368.739105,29.879980 370.225739,30.064388 371.842133,30.588545 
z"/>
<path fill="#FAE8E9" opacity="1.000000" stroke="none" 
	d="
M36.684265,193.244202 
	C37.529175,193.256134 38.155109,193.784927 38.693207,193.707016 
	C57.233364,191.022675 76.176285,190.161285 93.663597,182.533722 
	C97.186028,180.997345 100.112549,178.057297 103.244644,175.673523 
	C106.645439,173.085236 110.332466,170.734741 113.222519,167.650681 
	C116.426003,164.232132 118.881088,160.109695 121.638893,156.277084 
	C123.311363,153.952774 124.497841,150.998459 126.683296,149.383835 
	C130.818115,146.328995 133.407532,142.759583 134.252182,137.649261 
	C134.643234,135.283279 135.994690,133.076004 137.303589,130.419922 
	C138.257950,130.101440 138.819458,130.159836 139.300476,130.512970 
	C139.477066,131.228958 139.734146,131.650223 140.119324,132.306305 
	C140.509460,132.780106 140.771530,133.019073 141.056686,133.354233 
	C141.079773,133.450439 141.035904,133.643402 141.035919,133.643402 
	C139.864319,135.431808 138.042404,137.087250 137.644424,139.033829 
	C136.500336,144.629379 133.529480,148.477081 128.693817,151.405121 
	C127.077507,152.383820 125.915016,154.656891 125.261162,156.581543 
	C122.986107,163.278412 119.709045,168.819336 112.681473,171.689758 
	C110.393578,172.624268 108.538567,175.004166 106.888626,177.048309 
	C99.664566,185.998367 89.348251,188.677567 78.889061,190.828598 
	C69.798309,192.698196 60.592361,194.015350 51.425571,195.504257 
	C46.837135,196.249542 42.222462,196.833298 37.290901,197.743240 
	C36.782879,196.490326 36.603611,194.984238 36.684265,193.244202 
z"/>
<path fill="#FAE8E9" opacity="1.000000" stroke="none" 
	d="
M151.280518,367.438202 
	C151.730225,357.712372 147.323425,349.782532 142.955750,341.951569 
	C142.097504,340.412842 139.548706,339.182617 137.647568,338.965393 
	C127.243019,337.776398 116.812874,336.408112 106.362495,336.106476 
	C83.894440,335.457947 61.408680,335.422638 38.461082,334.684570 
	C37.999374,333.471771 38.006744,332.710693 38.014118,331.949585 
	C69.926247,332.847076 101.834923,333.921753 133.752411,334.543976 
	C144.618484,334.755798 148.098160,342.044403 150.803894,350.362152 
	C152.494492,355.559326 153.546310,360.964294 154.934891,366.667419 
	C153.822800,367.264618 152.660583,367.470428 151.280518,367.438202 
z"/>
<path fill="#E9D6D7" opacity="1.000000" stroke="none" 
	d="
M192.063354,364.040985 
	C192.063095,364.779327 192.062851,365.517700 192.037506,366.627472 
	C191.147171,367.208252 190.281921,367.417572 189.225128,367.392944 
	C189.272171,366.299561 189.510788,365.440063 190.244431,364.297150 
	C191.180771,364.022797 191.622070,364.031891 192.063354,364.040985 
z"/>
<path fill="#E9D6D7" opacity="1.000000" stroke="none" 
	d="
M37.863136,331.767975 
	C38.006744,332.710693 37.999374,333.471771 37.997139,334.613403 
	C37.785706,335.227112 37.567360,335.458588 37.164642,335.842468 
	C36.957993,334.599091 36.933949,333.201630 36.955276,331.386108 
	C37.269115,331.138153 37.506287,331.344269 37.863136,331.767975 
z"/>
<path fill="#FEFEFE" opacity="1.000000" stroke="none" 
	d="
M192.192368,363.664124 
	C191.622070,364.031891 191.180771,364.022797 190.408417,364.005585 
	C190.294891,362.355530 190.901260,360.655518 190.666260,359.081116 
	C189.235916,349.498596 194.759460,345.649933 202.633865,342.080994 
	C219.694321,334.348602 235.255798,323.772552 246.829834,309.014008 
	C256.709229,296.416382 263.161163,281.674652 263.949127,265.133331 
	C264.044037,263.141327 264.081696,261.146576 264.507690,258.843201 
	C267.129425,260.347473 267.238342,258.721375 267.157013,257.047211 
	C266.529419,244.126083 266.152435,231.184113 265.128052,218.293884 
	C264.408997,209.245911 263.472473,200.418549 269.147797,192.393219 
	C270.452576,190.548187 271.631104,188.193726 271.749695,186.012909 
	C272.044434,180.593201 275.310669,178.803772 279.898010,177.962387 
	C286.000732,176.843094 291.791748,173.525360 298.350037,175.870026 
	C305.881683,178.562683 306.482117,178.213150 310.467163,171.427933 
	C311.895355,168.996201 313.773682,166.814468 315.064514,164.320847 
	C316.191132,162.144516 316.954468,159.730789 317.513123,157.336716 
	C317.707855,156.502380 316.766357,154.551758 316.419830,154.569824 
	C311.130066,154.845627 310.183594,150.122131 307.705505,146.862335 
	C308.266052,145.709412 308.800201,144.918320 309.621887,143.970367 
	C312.109528,140.924622 313.764984,136.452347 316.620850,135.470078 
	C322.941956,133.295944 323.520996,128.164291 324.369049,123.457924 
	C326.246490,113.038269 327.342255,102.477776 328.834961,91.704910 
	C328.607727,91.279701 328.302368,91.124290 327.719696,90.783272 
	C326.583801,90.369995 325.725189,90.142326 324.574036,89.789337 
	C323.683563,89.744675 323.085693,89.825333 322.490662,89.825081 
	C322.493530,89.744171 322.244019,89.596397 321.855804,89.350266 
	C320.052429,88.637016 318.590454,88.277672 317.229431,87.686005 
	C304.243103,82.040558 289.608490,80.486565 277.835754,71.768417 
	C276.613037,70.862938 274.706116,70.881416 272.850403,70.311508 
	C271.768158,69.997131 270.952148,69.842422 269.926331,69.454666 
	C262.989899,67.382133 256.572540,64.914261 251.185242,59.892887 
	C250.421143,59.018204 249.756241,58.402145 248.902588,57.494904 
	C238.130096,51.776321 227.061661,49.263748 215.078293,50.784756 
	C206.096298,51.924812 197.803711,54.040928 192.398849,62.082272 
	C191.905914,62.815643 192.099487,64.010445 191.986755,64.996597 
	C191.999252,65.002228 191.984894,64.979774 191.772400,64.562805 
	C189.137192,65.374428 186.612015,66.445389 184.347595,67.917473 
	C183.559692,68.429680 183.416641,69.933800 182.990112,70.992371 
	C183.001160,70.999855 182.988235,70.975998 182.743835,70.575989 
	C181.466782,71.481018 180.467224,72.813995 179.393860,74.084602 
	C177.748520,76.032310 176.409012,78.598732 174.308243,79.731125 
	C168.864273,82.665642 165.765305,86.645927 165.430115,92.972061 
	C165.344070,94.596092 163.849258,97.237663 162.568192,97.533264 
	C152.388992,99.882164 153.117737,108.782700 150.992157,115.990738 
	C150.999390,115.999695 150.980682,115.986328 150.671646,115.746918 
	C148.697205,118.052185 145.662170,120.599564 145.667191,123.140953 
	C145.676117,127.667114 143.333908,129.104538 139.867218,130.338287 
	C139.710388,130.279343 139.380951,130.218231 139.380951,130.218231 
	C138.819458,130.159836 138.257950,130.101440 137.272736,130.052673 
	C133.826233,126.803596 130.921799,123.424828 127.759216,120.308006 
	C116.900078,109.606010 105.832932,99.112938 95.072006,88.314095 
	C86.190445,79.401245 77.692329,70.107666 68.910904,61.093262 
	C59.650513,51.587181 50.255680,42.212070 40.790855,32.459862 
	C42.826622,32.097504 44.991112,32.018009 47.155609,32.017868 
	C154.461578,32.010860 261.767548,32.010654 369.542969,32.003727 
	C370.111328,33.151237 370.296814,34.304726 370.296844,35.458221 
	C370.299377,144.535690 370.287811,253.613174 370.157928,363.078461 
	C370.038696,363.466278 369.841156,363.720032 369.841156,363.720032 
	C361.398468,355.279266 353.006500,346.786987 344.500275,338.410767 
	C333.873260,327.946167 323.020508,317.707977 312.508484,307.130310 
	C301.763306,296.318054 291.371002,285.156006 280.703491,274.265350 
	C276.608856,270.085083 272.180542,266.231628 267.584930,261.930328 
	C267.250671,265.265198 267.092102,268.361786 266.610718,271.407349 
	C263.243286,292.711487 253.032135,310.460022 236.414886,323.764130 
	C225.489685,332.511108 213.094131,339.500702 200.984070,346.645111 
	C196.815033,349.104675 193.461441,351.046021 193.507523,356.417236 
	C193.527145,358.703674 192.741211,360.997040 192.192368,363.664124 
z"/>
<path fill="#FCFCFC" opacity="1.000000" stroke="none" 
	d="
M141.263214,133.904938 
	C141.035904,133.643402 141.079773,133.450439 141.363739,133.156250 
	C142.922745,132.250580 144.347626,131.830093 145.433746,130.977859 
	C146.706223,129.979416 148.128113,128.782745 148.697876,127.357353 
	C149.928131,124.279640 150.702072,121.013031 151.541092,117.792015 
	C151.676041,117.273933 151.183289,116.592339 150.980682,115.986328 
	C150.980682,115.986328 150.999390,115.999695 151.210876,116.418350 
	C153.065353,114.205154 155.535599,111.752663 156.154327,108.898766 
	C157.046356,104.784256 158.852722,102.340004 162.824829,101.224854 
	C166.826859,100.101311 168.919861,97.362907 168.961609,93.177834 
	C169.011139,88.213913 171.017578,84.826439 175.853073,82.836143 
	C180.932022,80.745636 183.431763,76.628082 182.988235,70.975998 
	C182.988235,70.975998 183.001160,70.999855 183.261124,71.322525 
	C186.342361,69.423386 189.163635,67.201584 191.984894,64.979782 
	C191.984894,64.979774 191.999252,65.002228 192.226852,65.351837 
	C194.024673,64.531448 195.641251,63.417988 197.154007,62.177883 
	C199.299744,60.418873 201.121689,57.514278 203.517319,56.951195 
	C210.744934,55.252377 218.154388,53.897209 225.550125,53.515270 
	C229.567764,53.307785 233.701523,55.348824 237.782913,56.375652 
	C231.588486,60.326077 224.185608,73.592499 224.961502,79.933517 
	C225.541275,84.671989 230.983688,89.783043 235.265594,89.844994 
	C236.226608,81.599632 237.185410,73.373260 238.144211,65.146896 
	C238.745346,65.203308 239.346466,65.259720 239.947601,65.316124 
	C239.947601,71.179665 239.947601,77.043205 239.947601,82.709221 
	C246.258392,79.900414 249.079559,73.218102 246.087540,67.053307 
	C244.789398,64.378609 243.237549,61.827045 241.979797,59.007668 
	C242.266083,58.645332 242.373505,58.494892 242.837387,58.378773 
	C245.097427,59.380867 247.001022,60.348648 249.026489,61.576134 
	C249.719635,62.332321 250.290894,62.828800 250.989410,63.632179 
	C256.021332,69.757278 263.110229,70.281319 270.053925,71.870445 
	C271.173279,72.390259 272.082855,72.705322 273.256378,73.240982 
	C276.350403,75.635986 279.180481,77.810394 281.676208,80.165543 
	C278.670044,78.888359 275.998230,77.430428 273.190002,75.898071 
	C273.190002,80.886665 273.190002,85.260117 273.190002,90.464157 
	C278.101654,88.633812 282.307434,87.066521 286.513184,85.499222 
	C286.752258,84.895279 286.991364,84.291328 287.230438,83.687386 
	C285.460602,82.425270 283.690796,81.163147 282.221069,79.547211 
	C291.978119,82.493958 301.435028,85.794540 312.084686,89.511398 
	C309.579651,89.985100 308.423462,90.203728 306.836731,90.503777 
	C310.768280,96.494148 314.450439,102.210060 318.289673,107.818451 
	C318.760559,108.506325 320.072083,108.618721 321.263885,108.992249 
	C321.890045,109.024994 322.246399,109.063286 322.605042,109.512970 
	C321.651276,115.823990 320.768829,121.737297 319.677185,127.611732 
	C319.457245,128.795303 318.689362,130.155258 317.746582,130.869843 
	C315.618896,132.482544 313.223877,133.742569 310.982239,135.118698 
	C310.761536,134.353134 310.313660,132.799423 309.824890,131.103912 
	C300.481079,130.258469 291.212128,129.277557 281.919708,128.636688 
	C276.986603,128.296494 272.638763,132.044693 271.138489,137.253128 
	C269.335297,143.513397 270.691132,150.686249 275.024597,151.883331 
	C284.771637,154.575790 294.798859,156.256012 304.720459,158.307663 
	C305.144470,158.395355 305.644836,158.022797 306.122314,157.958374 
	C308.611237,157.622452 311.104279,157.316910 313.595917,157.000809 
	C313.891876,157.553635 314.187836,158.106461 314.483795,158.659286 
	C311.655548,163.265518 308.918579,167.932922 305.912781,172.420197 
	C305.386871,173.205322 303.748077,173.419312 302.589081,173.526031 
	C302.076874,173.573196 300.927856,172.557449 301.002625,172.256088 
	C302.284637,167.087708 298.176361,167.998276 295.710083,167.856552 
	C288.562042,167.445786 281.387054,167.190338 274.231323,167.327148 
	C268.485626,167.437027 264.585846,164.810654 260.995789,160.686569 
	C253.722229,152.330978 248.896622,142.514709 243.534622,132.975021 
	C237.130692,121.581566 232.528564,109.883522 234.323959,96.451180 
	C234.443771,95.554886 233.225510,94.479752 232.629593,93.487801 
	C231.452286,99.877762 230.809860,105.714691 231.578827,111.359344 
	C233.498032,125.447098 241.558975,136.959030 248.705551,148.724106 
	C252.395264,154.798279 256.759766,160.550842 261.466217,165.877151 
	C263.446167,168.117828 266.982513,169.724731 270.013977,170.139786 
	C276.252625,170.993973 282.627686,170.852081 288.960052,171.343353 
	C288.973511,171.566589 289.031586,172.010117 288.652527,172.118927 
	C283.173981,173.683670 278.087555,175.187653 272.969452,176.574799 
	C270.499359,177.244263 269.895630,178.526321 269.765747,181.182632 
	C269.620056,184.162338 268.739807,187.658813 266.915985,189.904678 
	C260.304840,198.045761 260.618988,207.279663 261.321198,216.839203 
	C262.290863,230.039154 262.933685,243.263123 263.716492,256.476807 
	C258.620270,251.562759 253.502823,246.670486 248.432159,241.730209 
	C237.169785,230.757385 225.880096,219.811737 214.712143,208.743423 
	C211.187805,205.250519 208.174927,201.241638 204.651321,197.747910 
	C194.100723,187.286743 183.288696,177.087418 172.814148,166.551834 
	C162.226410,155.902390 151.920120,144.973129 141.263214,133.904938 
M214.453629,164.992584 
	C213.099838,162.463577 210.933914,160.043503 210.576767,157.380814 
	C209.996765,153.056717 210.347412,148.548019 210.790894,144.166382 
	C211.114059,140.973450 212.292206,137.874847 212.952866,134.705765 
	C213.475830,132.197052 214.455902,129.533798 214.054138,127.136757 
	C213.331802,122.826813 214.741776,120.147285 217.765442,117.093895 
	C220.634933,114.196205 222.232376,110.008514 224.203415,106.289627 
	C224.451767,105.821053 223.570496,104.753761 223.212585,103.963852 
	C222.435883,104.544487 221.365952,104.962448 220.936874,105.735924 
	C219.591232,108.161652 219.151230,111.709236 217.165176,113.044579 
	C211.104355,117.119621 211.248871,122.548401 210.656021,129.004593 
	C209.930267,136.908112 208.618866,144.659698 208.230988,152.707993 
	C207.935440,158.840500 208.878647,162.985214 211.935379,167.586685 
	C213.044037,169.255630 213.384140,171.432968 214.087524,173.373779 
	C215.175507,176.375809 215.607376,179.922928 217.521286,182.247940 
	C220.564514,185.944809 222.144638,189.491531 222.008606,194.415329 
	C221.934250,197.107071 223.657883,200.442795 225.621918,202.469238 
	C229.376389,206.342987 233.849503,209.529388 238.085800,212.924408 
	C242.156570,216.186783 246.305038,219.352173 250.419357,222.560196 
	C250.870697,222.237152 251.322021,221.914108 251.773346,221.591049 
	C251.446259,220.599792 251.424179,219.249603 250.745102,218.672516 
	C243.570877,212.575760 236.167953,206.742111 229.126251,200.499588 
	C227.290237,198.871948 225.311630,196.003906 225.444885,193.831055 
	C225.781998,188.333115 223.967957,184.211929 220.387314,180.302139 
	C218.949432,178.732101 218.300919,176.354126 217.562424,174.249374 
	C216.562424,171.399414 215.821548,168.458511 214.453629,164.992584 
z"/>
<path fill="#373434" opacity="1.000000" stroke="none" 
	d="
M263.801941,256.676819 
	C262.933685,243.263123 262.290863,230.039154 261.321198,216.839203 
	C260.618988,207.279663 260.304840,198.045761 266.915985,189.904678 
	C268.739807,187.658813 269.620056,184.162338 269.765747,181.182632 
	C269.895630,178.526321 270.499359,177.244263 272.969452,176.574799 
	C278.087555,175.187653 283.173981,173.683670 289.048767,172.115936 
	C292.035553,171.783203 294.247040,171.562271 296.458527,171.341324 
	C296.378723,170.784561 296.298889,170.227814 296.219086,169.671051 
	C293.794922,170.154068 291.370758,170.637085 288.946594,171.120102 
	C282.627686,170.852081 276.252625,170.993973 270.013977,170.139786 
	C266.982513,169.724731 263.446167,168.117828 261.466217,165.877151 
	C256.759766,160.550842 252.395264,154.798279 248.705551,148.724106 
	C241.558975,136.959030 233.498032,125.447098 231.578827,111.359344 
	C230.809860,105.714691 231.452286,99.877762 232.629593,93.487801 
	C233.225510,94.479752 234.443771,95.554886 234.323959,96.451180 
	C232.528564,109.883522 237.130692,121.581566 243.534622,132.975021 
	C248.896622,142.514709 253.722229,152.330978 260.995789,160.686569 
	C264.585846,164.810654 268.485626,167.437027 274.231323,167.327148 
	C281.387054,167.190338 288.562042,167.445786 295.710083,167.856552 
	C298.176361,167.998276 302.284637,167.087708 301.002625,172.256088 
	C300.927856,172.557449 302.076874,173.573196 302.589081,173.526031 
	C303.748077,173.419312 305.386871,173.205322 305.912781,172.420197 
	C308.918579,167.932922 311.655548,163.265518 314.483795,158.659286 
	C314.187836,158.106461 313.891876,157.553635 313.595917,157.000809 
	C311.104279,157.316910 308.611237,157.622452 306.122314,157.958374 
	C305.644836,158.022797 305.144470,158.395355 304.720459,158.307663 
	C294.798859,156.256012 284.771637,154.575790 275.024597,151.883331 
	C270.691132,150.686249 269.335297,143.513397 271.138489,137.253128 
	C272.638763,132.044693 276.986603,128.296494 281.919708,128.636688 
	C291.212128,129.277557 300.481079,130.258469 309.824890,131.103912 
	C310.313660,132.799423 310.761536,134.353134 310.982239,135.118698 
	C313.223877,133.742569 315.618896,132.482544 317.746582,130.869843 
	C318.689362,130.155258 319.457245,128.795303 319.677185,127.611732 
	C320.768829,121.737297 321.651276,115.823990 322.775208,109.123955 
	C323.401642,105.420479 323.985870,102.530289 324.285339,99.610893 
	C324.615417,96.392792 324.684052,93.147881 324.866577,89.914650 
	C325.725189,90.142326 326.583801,90.369995 327.793274,90.987274 
	C328.284637,91.641464 328.488861,91.840736 328.756805,91.974716 
	C327.342255,102.477776 326.246490,113.038269 324.369049,123.457924 
	C323.520996,128.164291 322.941956,133.295944 316.620850,135.470078 
	C313.764984,136.452347 312.109528,140.924622 309.278381,143.935989 
	C308.187500,144.038879 307.727692,144.019272 307.253967,143.595306 
	C307.457581,142.216095 307.748077,141.251053 307.880646,140.264786 
	C308.684998,134.278870 308.214539,133.675995 302.321411,133.030350 
	C296.529480,132.395798 290.726776,131.848465 284.946960,131.118912 
	C280.925171,130.611298 277.875244,131.568512 275.816742,135.407486 
	C273.627869,139.489548 272.646271,143.573181 275.146973,147.696030 
	C275.983124,149.074524 277.717010,150.473633 279.250397,150.767197 
	C286.262909,152.109833 293.405579,152.797134 300.388763,154.258514 
	C304.431061,155.104446 305.388000,153.443222 305.763824,150.052338 
	C305.880219,149.002090 306.927124,148.054962 307.573425,147.096115 
	C307.598846,147.131622 307.679138,147.224197 307.679138,147.224197 
	C310.183594,150.122131 311.130066,154.845627 316.419830,154.569824 
	C316.766357,154.551758 317.707855,156.502380 317.513123,157.336716 
	C316.954468,159.730789 316.191132,162.144516 315.064514,164.320847 
	C313.773682,166.814468 311.895355,168.996201 310.467163,171.427933 
	C306.482117,178.213150 305.881683,178.562683 298.350037,175.870026 
	C291.791748,173.525360 286.000732,176.843094 279.898010,177.962387 
	C275.310669,178.803772 272.044434,180.593201 271.749695,186.012909 
	C271.631104,188.193726 270.452576,190.548187 269.147797,192.393219 
	C263.472473,200.418549 264.408997,209.245911 265.128052,218.293884 
	C266.152435,231.184113 266.529419,244.126083 267.157013,257.047211 
	C267.238342,258.721375 267.129425,260.347473 264.580444,258.335083 
	C264.156738,257.716827 264.022095,257.296814 263.801941,256.676819 
z"/>
<path fill="#585556" opacity="1.000000" stroke="none" 
	d="
M369.920410,363.809326 
	C369.841156,363.720032 370.038696,363.466278 370.139008,363.591797 
	C370.239319,363.717316 370.398346,363.805969 370.437714,363.890320 
	C370.477081,363.974701 369.999634,363.898621 369.920410,363.809326 
z"/>
<path fill="#2C292A" opacity="1.000000" stroke="none" 
	d="
M150.671646,115.746918 
	C151.183289,116.592339 151.676041,117.273933 151.541092,117.792015 
	C150.702072,121.013031 149.928131,124.279640 148.697876,127.357353 
	C148.128113,128.782745 146.706223,129.979416 145.433746,130.977859 
	C144.347626,131.830093 142.922745,132.250580 141.340652,133.060043 
	C140.771530,133.019073 140.509460,132.780106 140.127045,132.027039 
	C140.012482,131.141037 140.018265,130.769135 140.024033,130.397232 
	C143.333908,129.104538 145.676117,127.667114 145.667191,123.140953 
	C145.662170,120.599564 148.697205,118.052185 150.671646,115.746918 
z"/>
<path fill="#383536" opacity="1.000000" stroke="none" 
	d="
M139.867218,130.338287 
	C140.018265,130.769135 140.012482,131.141037 139.998962,131.792206 
	C139.734146,131.650223 139.477066,131.228958 139.300476,130.512970 
	C139.380951,130.218231 139.710388,130.279343 139.867218,130.338287 
z"/>
<path fill="#2C292A" opacity="1.000000" stroke="none" 
	d="
M248.904602,61.316429 
	C247.001022,60.348648 245.097427,59.380867 242.557205,58.267540 
	C241.353928,58.171375 240.787292,58.220757 239.302658,58.350147 
	C240.717712,58.842594 241.259323,59.031075 241.800934,59.219559 
	C243.237549,61.827045 244.789398,64.378609 246.087540,67.053307 
	C249.079559,73.218102 246.258392,79.900414 239.947601,82.709221 
	C239.947601,77.043205 239.947601,71.179665 239.947601,65.316124 
	C239.346466,65.259720 238.745346,65.203308 238.144211,65.146896 
	C237.185410,73.373260 236.226608,81.599632 235.265594,89.844994 
	C230.983688,89.783043 225.541275,84.671989 224.961502,79.933517 
	C224.185608,73.592499 231.588486,60.326077 237.782913,56.375652 
	C233.701523,55.348824 229.567764,53.307785 225.550125,53.515270 
	C218.154388,53.897209 210.744934,55.252377 203.517319,56.951195 
	C201.121689,57.514278 199.299744,60.418873 197.154007,62.177883 
	C195.641251,63.417988 194.024673,64.531448 192.214355,65.346214 
	C192.099487,64.010445 191.905914,62.815643 192.398849,62.082272 
	C197.803711,54.040928 206.096298,51.924812 215.078293,50.784756 
	C227.061661,49.263748 238.130096,51.776321 248.878174,57.936172 
	C248.996521,59.551231 248.950562,60.433830 248.904602,61.316429 
z"/>
<path fill="#2F2B2C" opacity="1.000000" stroke="none" 
	d="
M320.994049,108.997803 
	C320.072083,108.618721 318.760559,108.506325 318.289673,107.818451 
	C314.450439,102.210060 310.768280,96.494148 306.836731,90.503777 
	C308.423462,90.203728 309.579651,89.985100 312.084686,89.511398 
	C301.435028,85.794540 291.978119,82.493958 282.239258,79.572685 
	C281.957275,79.951988 282.010590,79.984795 282.010590,79.984795 
	C279.180481,77.810394 276.350403,75.635986 273.262085,72.815575 
	C273.041473,71.603439 273.079071,71.037315 273.116638,70.471191 
	C274.706116,70.881416 276.613037,70.862938 277.835754,71.768417 
	C289.608490,80.486565 304.243103,82.040558 317.229431,87.686005 
	C318.590454,88.277672 320.052429,88.637016 321.274109,89.424469 
	C320.395721,90.072678 319.710785,90.400558 318.639587,90.738716 
	C317.301331,90.861488 316.349304,90.973991 314.452515,91.198135 
	C317.826752,92.461700 320.323730,93.396759 322.858368,94.345917 
	C322.197113,99.542870 321.595581,104.270340 320.994049,108.997803 
M313.068756,90.524223 
	C313.217285,90.774384 313.365814,91.024544 313.514343,91.274704 
	C313.652466,91.016800 313.955048,90.695663 313.886444,90.517281 
	C313.803864,90.302643 313.405731,90.209389 313.068756,90.524223 
z"/>
<path fill="#2C292A" opacity="1.000000" stroke="none" 
	d="
M182.743835,70.575989 
	C183.431763,76.628082 180.932022,80.745636 175.853073,82.836143 
	C171.017578,84.826439 169.011139,88.213913 168.961609,93.177834 
	C168.919861,97.362907 166.826859,100.101311 162.824829,101.224854 
	C158.852722,102.340004 157.046356,104.784256 156.154327,108.898766 
	C155.535599,111.752663 153.065353,114.205154 151.203644,116.409386 
	C153.117737,108.782700 152.388992,99.882164 162.568192,97.533264 
	C163.849258,97.237663 165.344070,94.596092 165.430115,92.972061 
	C165.765305,86.645927 168.864273,82.665642 174.308243,79.731125 
	C176.409012,78.598732 177.748520,76.032310 179.393860,74.084602 
	C180.467224,72.813995 181.466782,71.481018 182.743835,70.575989 
z"/>
<path fill="#2C292A" opacity="1.000000" stroke="none" 
	d="
M269.844177,71.665695 
	C263.110229,70.281319 256.021332,69.757278 251.048859,63.101688 
	C251.082153,61.560040 251.183304,60.855774 251.284454,60.151512 
	C256.572540,64.914261 262.989899,67.382133 269.853699,69.949219 
	C269.942047,71.006454 269.893097,71.336075 269.844177,71.665695 
z"/>
<path fill="#CECDCD" opacity="1.000000" stroke="none" 
	d="
M321.263885,108.992249 
	C321.595581,104.270340 322.197113,99.542870 322.858368,94.345917 
	C320.323730,93.396759 317.826752,92.461700 314.452515,91.198135 
	C316.349304,90.973991 317.301331,90.861488 319.091003,90.885147 
	C320.781738,90.649536 321.634766,90.277771 322.487793,89.905998 
	C323.085693,89.825333 323.683563,89.744675 324.574036,89.789337 
	C324.684052,93.147881 324.615417,96.392792 324.285339,99.610893 
	C323.985870,102.530289 323.401642,105.420479 322.772858,108.712555 
	C322.246399,109.063286 321.890045,109.024994 321.263885,108.992249 
z"/>
<path fill="#2C292A" opacity="1.000000" stroke="none" 
	d="
M191.772400,64.562805 
	C189.163635,67.201584 186.342361,69.423386 183.250076,71.315041 
	C183.416641,69.933800 183.559692,68.429680 184.347595,67.917473 
	C186.612015,66.445389 189.137192,65.374428 191.772400,64.562805 
z"/>
<path fill="#383536" opacity="1.000000" stroke="none" 
	d="
M270.053925,71.870445 
	C269.893097,71.336075 269.942047,71.006454 270.063568,70.182266 
	C270.952148,69.842422 271.768158,69.997131 272.850403,70.311508 
	C273.079071,71.037315 273.041473,71.603439 272.998169,72.594971 
	C272.082855,72.705322 271.173279,72.390259 270.053925,71.870445 
z"/>
<path fill="#383536" opacity="1.000000" stroke="none" 
	d="
M251.185242,59.892883 
	C251.183304,60.855774 251.082153,61.560040 250.921585,62.794792 
	C250.290894,62.828800 249.719635,62.332321 249.026474,61.576134 
	C248.950562,60.433830 248.996521,59.551231 249.066925,58.227360 
	C249.756241,58.402145 250.421143,59.018204 251.185242,59.892883 
z"/>
<path fill="#383536" opacity="1.000000" stroke="none" 
	d="
M307.705505,146.862335 
	C307.679138,147.224197 307.598846,147.131622 307.653687,146.676331 
	C307.561646,145.480576 307.414764,144.740128 307.267883,143.999680 
	C307.727692,144.019272 308.187500,144.038879 308.990845,144.092850 
	C308.800201,144.918320 308.266052,145.709412 307.705505,146.862335 
z"/>
<path fill="#373434" opacity="1.000000" stroke="none" 
	d="
M322.490662,89.825089 
	C321.634766,90.277771 320.781738,90.649536 319.477295,90.874870 
	C319.710785,90.400558 320.395721,90.072678 321.662323,89.670593 
	C322.244019,89.596397 322.493530,89.744171 322.490662,89.825089 
z"/>
<path fill="#383536" opacity="1.000000" stroke="none" 
	d="
M328.834961,91.704910 
	C328.488861,91.840736 328.284637,91.641464 328.070557,91.172882 
	C328.302368,91.124290 328.607727,91.279701 328.834961,91.704910 
z"/>
<path fill="#3A3738" opacity="1.000000" stroke="none" 
	d="
M214.711578,165.274597 
	C215.821548,168.458511 216.562424,171.399414 217.562424,174.249374 
	C218.300919,176.354126 218.949432,178.732101 220.387314,180.302139 
	C223.967957,184.211929 225.781998,188.333115 225.444885,193.831055 
	C225.311630,196.003906 227.290237,198.871948 229.126251,200.499588 
	C236.167953,206.742111 243.570877,212.575760 250.745102,218.672516 
	C251.424179,219.249603 251.446259,220.599792 251.773346,221.591049 
	C251.322021,221.914108 250.870697,222.237152 250.419357,222.560196 
	C246.305038,219.352173 242.156570,216.186783 238.085800,212.924408 
	C233.849503,209.529388 229.376389,206.342987 225.621918,202.469238 
	C223.657883,200.442795 221.934250,197.107071 222.008606,194.415329 
	C222.144638,189.491531 220.564514,185.944809 217.521286,182.247940 
	C215.607376,179.922928 215.175507,176.375809 214.087524,173.373779 
	C213.384140,171.432968 213.044037,169.255630 211.935379,167.586685 
	C208.878647,162.985214 207.935440,158.840500 208.230988,152.707993 
	C208.618866,144.659698 209.930267,136.908112 210.656021,129.004593 
	C211.248871,122.548401 211.104355,117.119621 217.165176,113.044579 
	C219.151230,111.709236 219.591232,108.161652 220.936874,105.735924 
	C221.365952,104.962448 222.435883,104.544487 223.212585,103.963852 
	C223.570496,104.753761 224.451767,105.821053 224.203415,106.289627 
	C222.232376,110.008514 220.634933,114.196205 217.765442,117.093895 
	C214.741776,120.147285 213.331802,122.826813 214.054138,127.136757 
	C214.455902,129.533798 213.475830,132.197052 212.952866,134.705765 
	C212.292206,137.874847 211.114059,140.973450 210.790894,144.166382 
	C210.347412,148.548019 209.996765,153.056717 210.576767,157.380814 
	C210.933914,160.043503 213.099838,162.463577 214.711578,165.274597 
z"/>
<path fill="#2F2B2C" opacity="1.000000" stroke="none" 
	d="
M281.939117,79.926514 
	C283.690796,81.163147 285.460602,82.425270 287.230438,83.687386 
	C286.991364,84.291328 286.752258,84.895279 286.513184,85.499222 
	C282.307434,87.066521 278.101654,88.633812 273.190002,90.464157 
	C273.190002,85.260117 273.190002,80.886665 273.190002,75.898071 
	C275.998230,77.430428 278.670044,78.888359 281.676208,80.165543 
	C282.010590,79.984795 281.957275,79.951988 281.939117,79.926514 
z"/>
<path fill="#363334" opacity="1.000000" stroke="none" 
	d="
M288.960052,171.343353 
	C291.370758,170.637085 293.794922,170.154068 296.219086,169.671051 
	C296.298889,170.227814 296.378723,170.784561 296.458527,171.341324 
	C294.247040,171.562271 292.035553,171.783203 289.427826,172.007141 
	C289.031586,172.010117 288.973511,171.566589 288.960052,171.343353 
z"/>
<path fill="#F9F9F9" opacity="1.000000" stroke="none" 
	d="
M307.253967,143.595306 
	C307.414764,144.740128 307.561646,145.480576 307.628235,146.640823 
	C306.927124,148.054962 305.880219,149.002090 305.763824,150.052338 
	C305.388000,153.443222 304.431061,155.104446 300.388763,154.258514 
	C293.405579,152.797134 286.262909,152.109833 279.250397,150.767197 
	C277.717010,150.473633 275.983124,149.074524 275.146973,147.696030 
	C272.646271,143.573181 273.627869,139.489548 275.816742,135.407486 
	C277.875244,131.568512 280.925171,130.611298 284.946960,131.118912 
	C290.726776,131.848465 296.529480,132.395798 302.321411,133.030350 
	C308.214539,133.675995 308.684998,134.278870 307.880646,140.264786 
	C307.748077,141.251053 307.457581,142.216095 307.253967,143.595306 
z"/>
<path fill="#FCFCFC" opacity="1.000000" stroke="none" 
	d="
M241.979797,59.007668 
	C241.259323,59.031075 240.717712,58.842594 239.302658,58.350147 
	C240.787292,58.220757 241.353928,58.171375 242.200745,58.233223 
	C242.373505,58.494892 242.266083,58.645332 241.979797,59.007668 
z"/>
<path fill="#383536" opacity="1.000000" stroke="none" 
	d="
M313.106476,90.293900 
	C313.405731,90.209389 313.803864,90.302643 313.886444,90.517281 
	C313.955048,90.695663 313.652466,91.016800 313.514343,91.274704 
	C313.365814,91.024544 313.217285,90.774384 313.106476,90.293900 
z"/>
</svg>